<svg width="130" height="102" viewBox="0 0 130 102" fill="none" xmlns="http://www.w3.org/2000/svg">
<g opacity="0.5">
<ellipse cx="4.71015" cy="3.6793" rx="4.71015" ry="3.6793" fill="#9CB6EE"/>
<ellipse cx="4.71015" cy="27.2267" rx="4.71015" ry="3.6793" fill="#9CB6EE"/>
<ellipse cx="4.71015" cy="50.7745" rx="4.71015" ry="3.6793" fill="#9CB6EE"/>
<ellipse cx="4.71015" cy="74.3219" rx="4.71015" ry="3.6793" fill="#9CB6EE"/>
<ellipse cx="4.71015" cy="97.8692" rx="4.71015" ry="3.6793" fill="#9CB6EE"/>
<ellipse cx="34.8552" cy="3.6793" rx="4.71015" ry="3.6793" fill="#9CB6EE"/>
<ellipse cx="34.8552" cy="27.2267" rx="4.71015" ry="3.6793" fill="#9CB6EE"/>
<ellipse cx="34.8552" cy="50.7745" rx="4.71015" ry="3.6793" fill="#9CB6EE"/>
<ellipse cx="34.8552" cy="74.3219" rx="4.71015" ry="3.6793" fill="#9CB6EE"/>
<ellipse cx="34.8552" cy="97.8692" rx="4.71015" ry="3.6793" fill="#9CB6EE"/>
<ellipse cx="65.0002" cy="3.6793" rx="4.71015" ry="3.6793" fill="#9CB6EE"/>
<ellipse cx="65.0002" cy="27.2267" rx="4.71015" ry="3.6793" fill="#9CB6EE"/>
<ellipse cx="65.0002" cy="50.7745" rx="4.71015" ry="3.6793" fill="#9CB6EE"/>
<ellipse cx="65.0002" cy="74.3219" rx="4.71015" ry="3.6793" fill="#9CB6EE"/>
<ellipse cx="65.0002" cy="97.8692" rx="4.71015" ry="3.6793" fill="#9CB6EE"/>
<ellipse cx="95.1452" cy="3.6793" rx="4.71015" ry="3.6793" fill="#9CB6EE"/>
<ellipse cx="95.1452" cy="27.2267" rx="4.71015" ry="3.6793" fill="#9CB6EE"/>
<ellipse cx="95.1452" cy="50.7745" rx="4.71015" ry="3.6793" fill="#9CB6EE"/>
<ellipse cx="95.1452" cy="74.3219" rx="4.71015" ry="3.6793" fill="#9CB6EE"/>
<ellipse cx="95.1452" cy="97.8692" rx="4.71015" ry="3.6793" fill="#9CB6EE"/>
<ellipse cx="125.29" cy="3.6793" rx="4.71015" ry="3.6793" fill="#9CB6EE"/>
<ellipse cx="125.29" cy="27.2267" rx="4.71015" ry="3.6793" fill="#9CB6EE"/>
<ellipse cx="125.29" cy="50.7745" rx="4.71015" ry="3.6793" fill="#9CB6EE"/>
<ellipse cx="125.29" cy="74.3219" rx="4.71015" ry="3.6793" fill="#9CB6EE"/>
<ellipse cx="125.29" cy="97.8692" rx="4.71015" ry="3.6793" fill="#9CB6EE"/>
</g>
</svg>
