<svg width="171" height="45" viewBox="0 0 171 45" fill="none" xmlns="http://www.w3.org/2000/svg">
<path d="M170.096 16.4702H166.623L161.061 24.0094L167.329 32.1133H171L164.421 23.84L170.096 16.4702Z" fill="black"/>
<path d="M159.763 20.6212H156.827C156.657 19.3506 155.895 18.7294 154.822 18.7294C153.749 18.7294 152.987 19.4071 152.987 20.3953C152.987 21.6942 154.116 22.0331 155.415 22.4284C156.629 22.7955 160.13 23.7837 160.13 27.511C160.13 30.2782 158.21 32.5089 154.878 32.5089C152.902 32.5089 149.344 31.2665 149.344 26.9745H152.281C152.394 28.7252 153.297 29.8264 154.935 29.8264C156.262 29.8264 157.194 29.0075 157.194 27.6804C157.194 26.2968 155.98 25.8168 154.455 25.2803C152.761 24.6591 150.05 23.8967 150.05 20.5648C150.05 18.2493 151.998 16.0469 154.963 16.0469C156.742 16.0469 159.679 17.1481 159.763 20.6212Z" fill="black"/>
<path d="M147.661 25.5626H134.7C135.434 28.584 137.863 29.8264 139.839 29.8264C142.014 29.8264 143.595 28.5557 144.301 27.2004H147.237C145.741 31.2382 142.155 32.5089 139.726 32.5089C135.293 32.5089 131.764 28.6969 131.764 24.2638C131.764 19.5765 135.378 16.0469 139.783 16.0469C144.018 16.0469 147.717 19.4918 147.746 24.0661C147.746 24.5744 147.689 25.365 147.661 25.5626ZM134.7 23.3037H144.809C144.668 21.0165 142.578 18.7294 139.755 18.7294C136.931 18.7294 134.841 21.0165 134.7 23.3037Z" fill="black"/>
<path d="M111.816 32.1136V11.2184H118.593C122.942 11.2184 125.539 12.8844 127.121 15.0586C128.617 17.1481 129.267 19.6894 129.267 21.7225C129.267 24.5461 128.194 27.5675 126.641 29.0922C124.241 31.4641 121.417 32.1136 118.48 32.1136H111.816ZM114.866 14.0138V29.3181H118.509C122.179 29.3181 126.217 27.4827 126.217 21.7225C126.217 18.56 124.269 14.0138 118.565 14.0138H114.866Z" fill="black"/>
<path d="M94.0782 21.666H90.831C90.3509 20.6777 89.2215 18.7294 86.426 18.7294C82.6423 18.7294 81.287 21.8919 81.287 24.2638C81.287 26.9745 83.0094 29.8264 86.3696 29.8264C88.572 29.8264 90.0686 28.5557 90.8027 26.9462H94.0782C92.8922 30.4194 89.8427 32.5089 86.3696 32.5089C81.2305 32.5089 78.3503 28.3016 78.3503 24.2638C78.3503 20.0283 81.4564 16.0469 86.3978 16.0469C90.831 16.0469 93.4852 19.3506 94.0782 21.666Z" fill="black"/>
<path d="M103.88 16.4702H100.407L94.8441 24.0094L101.113 32.1133H104.783L98.2042 23.84L103.88 16.4702Z" fill="black"/>
<path d="M76.1814 24.2355C76.1814 28.0475 73.0472 32.5089 67.7387 32.5089C62.4866 32.5089 59.2959 28.1322 59.2959 24.1791C59.2959 19.9153 62.882 16.0469 67.7387 16.0469C72.4824 16.0469 76.1814 19.7741 76.1814 24.2355ZM73.2448 24.2355C73.2448 21.4683 71.0424 18.7294 67.7387 18.7294C64.435 18.7294 62.2325 21.4683 62.2325 24.2638C62.2325 27.0874 64.4632 29.8264 67.7387 29.8264C70.9012 29.8264 73.2448 27.2004 73.2448 24.2355Z" fill="black"/>
<path d="M56.3233 11.2184V32.1136H53.3867V11.2184H56.3233Z" fill="black"/>
<path d="M42.7578 32.1135H39.7083V11.2184H50.2688V14.0138H42.7578V20.2824H50.2688V23.0778H42.7578V32.1135Z" fill="black"/>
<path d="M23.2781 0.0067997C25.225 -0.116812 29.1189 1.39744 29.1189 8.44332H18.5964C16.8812 8.44332 15.491 9.83354 15.491 11.5488C15.4911 13.264 16.8812 14.6543 18.5964 14.6543H28.655V22.3496C28.6549 23.555 28.0613 26.5585 25.6882 28.9316C23.3145 31.3053 14.3168 40.1803 10.114 44.3213V33.289H0.00854492V9.83395C-0.145969 6.55826 1.75119 0.00690099 10.5769 0.0067997H23.2781ZM7.2312 20.4882C7.23121 21.4256 7.41643 22.3536 7.77515 23.2197C8.13389 24.0858 8.65914 24.8732 9.32202 25.5361C9.98489 26.199 10.7724 26.7242 11.6384 27.083C12.5045 27.4417 13.4325 27.6269 14.3699 27.6269C15.3073 27.6269 16.2353 27.4417 17.1013 27.083C17.9674 26.7242 18.7549 26.199 19.4177 25.5361C20.0806 24.8732 20.6059 24.0858 20.9646 23.2197C21.3233 22.3536 21.5085 21.4256 21.5085 20.4882H7.2312Z" fill="#303030"/>
</svg>
